<?xml version="1.0" encoding="utf-8"?>
<!-- Generator: Adobe Illustrator 19.2.1, SVG Export Plug-In . SVG Version: 6.00 Build 0)  -->
<svg version="1.1" id="Layer_1" xmlns="http://www.w3.org/2000/svg" xmlns:xlink="http://www.w3.org/1999/xlink" x="0px" y="0px"
	 viewBox="0 0 30 30" style="enable-background:new 0 0 30 30;" xml:space="preserve">
<style type="text/css">
	.st0{fill:#777;}
	.st0:hover{fill:#333;}
</style>
<g>
	<g>
		<g>
			<g>
				<path class="st0" d="M21.7,20.4l-3.5-3.5c0.6-0.9,1-1.9,1.1-3c0-0.1,0-0.1,0-0.2l0-0.1c0-0.1,0-0.1,0-0.2
					c-0.3-3.1-2.6-5.4-5.6-5.4c-3,0-5.6,2.6-5.6,5.6c0,3,2.4,5.5,5.3,5.6c1.2,0.1,2.3-0.2,3.2-0.8l3.5,3.5c0.2,0.2,0.5,0.3,0.7,0.3
					c0.2,0,0.5-0.1,0.7-0.3C21.9,21.5,22.1,20.8,21.7,20.4z M17.2,13.5c-0.1,2.3-2,3.5-3.8,3.5c-1.7,0-3.3-1.1-3.3-3.4
					c0-2.3,1.7-3.4,3.3-3.4h0.1C15.3,10.1,17.1,11.2,17.2,13.5z"/>
			</g>
		</g>
	</g>
</g>
</svg>
